<?xml version="1.0" encoding="UTF-8"?>
<svg xmlns="http://www.w3.org/2000/svg" xmlns:xlink="http://www.w3.org/1999/xlink" width="10pt" height="10pt" viewBox="0 0 10 10" version="1.1">
<g id="surface1">
<path style=" stroke:none;fill-rule:nonzero;fill:rgb(0%,0%,0%);fill-opacity:1;" d="M 7.996094 2.773438 C 7.023438 2.765625 6.050781 2.769531 5.074219 2.769531 C 4.046875 2.769531 3.015625 2.765625 1.984375 2.773438 C 1.472656 2.78125 1.347656 2.914062 1.417969 3.417969 C 1.691406 5.398438 1.972656 7.378906 2.253906 9.355469 C 2.328125 9.886719 2.460938 9.996094 2.996094 10 C 4.378906 10 5.761719 10 7.144531 10 C 7.738281 10 7.875 9.851562 7.945312 9.269531 C 8.171875 7.367188 8.40625 5.464844 8.652344 3.566406 C 8.738281 2.910156 8.652344 2.777344 7.996094 2.773438 Z M 3.460938 8.953125 C 3.125 8.996094 3 8.726562 2.964844 8.441406 C 2.800781 7.070312 2.648438 5.699219 2.492188 4.332031 C 2.460938 4.058594 2.539062 3.828125 2.824219 3.78125 C 3.136719 3.730469 3.285156 3.953125 3.324219 4.230469 C 3.429688 5.039062 3.523438 5.851562 3.621094 6.660156 C 3.6875 7.21875 3.75 7.777344 3.8125 8.335938 C 3.84375 8.632812 3.800781 8.914062 3.460938 8.953125 Z M 5.46875 8.4375 C 5.46875 8.714844 5.351562 8.96875 5.046875 8.964844 C 4.714844 8.957031 4.625 8.699219 4.628906 8.394531 C 4.636719 7.722656 4.632812 7.046875 4.632812 6.371094 L 4.625 6.371094 C 4.625 5.695312 4.628906 5.019531 4.621094 4.34375 C 4.621094 4.054688 4.671875 3.773438 5.015625 3.753906 C 5.359375 3.738281 5.460938 4.015625 5.460938 4.300781 C 5.472656 5.679688 5.472656 7.058594 5.46875 8.4375 Z M 7.640625 4.371094 C 7.472656 5.738281 7.300781 7.105469 7.125 8.472656 C 7.089844 8.75 6.941406 8.988281 6.636719 8.941406 C 6.308594 8.894531 6.253906 8.628906 6.296875 8.328125 C 6.386719 7.65625 6.460938 6.988281 6.546875 6.316406 C 6.632812 5.648438 6.722656 4.976562 6.800781 4.308594 C 6.835938 4.019531 6.921875 3.746094 7.265625 3.773438 C 7.609375 3.796875 7.671875 4.085938 7.640625 4.371094 Z M 4.246094 0.863281 C 4.414062 0.0273438 4.5 -0.0625 5.0625 0.0273438 C 6.019531 0.175781 6.046875 0.207031 5.921875 1.140625 C 6.660156 1.273438 7.402344 1.414062 8.148438 1.53125 C 8.46875 1.582031 8.761719 1.65625 8.703125 2.058594 C 8.644531 2.484375 8.300781 2.425781 8.007812 2.378906 C 6.289062 2.089844 4.570312 1.789062 2.851562 1.492188 C 2.476562 1.429688 2.105469 1.355469 1.726562 1.296875 C 1.425781 1.253906 1.253906 1.097656 1.304688 0.789062 C 1.359375 0.472656 1.597656 0.402344 1.882812 0.453125 C 2.671875 0.585938 3.457031 0.726562 4.246094 0.863281 Z M 4.246094 0.863281 "/>
</g>
</svg>
