<?xml version="1.0" encoding="UTF-8"?>
<svg xmlns="http://www.w3.org/2000/svg" xmlns:xlink="http://www.w3.org/1999/xlink" width="10pt" height="10pt" viewBox="0 0 10 10" version="1.1">
<g id="surface1">
<path style=" stroke:none;fill-rule:nonzero;fill:rgb(0%,0%,0%);fill-opacity:1;" d="M 9.34375 3.820312 C 9.332031 3.828125 9.320312 3.835938 9.3125 3.84375 C 8.871094 4.289062 8.425781 4.730469 7.988281 5.175781 C 7.949219 5.21875 7.925781 5.292969 7.925781 5.355469 C 7.921875 6.15625 7.921875 6.957031 7.921875 7.761719 L 7.921875 7.835938 C 7.921875 7.878906 7.859375 7.910156 7.777344 7.910156 L 2.234375 7.910156 C 2.15625 7.910156 2.089844 7.847656 2.089844 7.765625 L 2.089844 2.222656 C 2.089844 2.144531 2.125 2.078125 2.171875 2.078125 L 2.25 2.078125 C 3.046875 2.078125 3.84375 2.078125 4.640625 2.074219 C 4.710938 2.074219 4.800781 2.035156 4.851562 1.988281 C 5.273438 1.570312 5.695312 1.148438 6.113281 0.730469 C 6.128906 0.714844 6.144531 0.695312 6.160156 0.679688 C 6.183594 0.652344 6.140625 0.628906 6.058594 0.628906 L 0.769531 0.628906 C 0.691406 0.628906 0.625 0.695312 0.625 0.773438 L 0.625 9.226562 C 0.625 9.304688 0.6875 9.371094 0.769531 9.371094 L 9.230469 9.371094 C 9.3125 9.371094 9.375 9.308594 9.375 9.226562 L 9.375 3.9375 C 9.375 3.859375 9.359375 3.804688 9.34375 3.820312 Z M 3.371094 4.875 L 3.371094 6.488281 C 3.371094 6.566406 3.433594 6.632812 3.515625 6.632812 L 5.128906 6.632812 C 5.207031 6.632812 5.316406 6.585938 5.371094 6.527344 C 6.660156 5.238281 7.960938 3.941406 9.253906 2.648438 C 9.308594 2.59375 9.308594 2.503906 9.253906 2.445312 L 7.554688 0.75 C 7.5 0.691406 7.410156 0.691406 7.351562 0.75 C 6.058594 2.042969 4.761719 3.339844 3.472656 4.628906 C 3.417969 4.683594 3.371094 4.792969 3.371094 4.875 Z M 3.371094 4.875 "/>
</g>
</svg>
